<?xml version="1.0" encoding="UTF-8" standalone="no"?>
<svg
   xmlns:dc="http://purl.org/dc/elements/1.1/"
   xmlns:cc="http://creativecommons.org/ns#"
   xmlns:rdf="http://www.w3.org/1999/02/22-rdf-syntax-ns#"
   xmlns:svg="http://www.w3.org/2000/svg"
   xmlns="http://www.w3.org/2000/svg"
   xmlns:sodipodi="http://sodipodi.sourceforge.net/DTD/sodipodi-0.dtd"
   xmlns:inkscape="http://www.inkscape.org/namespaces/inkscape"
   width="320"
   height="180"
   viewBox="0 0 84.666664 47.625002"
   version="1.1"
   id="svg15290"
   inkscape:version="1.0.2 (e86c870879, 2021-01-15)"
   sodipodi:docname="related.svg">
  <defs
     id="defs15284" />
  <sodipodi:namedview
     id="base"
     pagecolor="#ffffff"
     bordercolor="#666666"
     borderopacity="1.0"
     inkscape:pageopacity="0.0"
     inkscape:pageshadow="2"
     inkscape:zoom="1.4"
     inkscape:cx="152.81241"
     inkscape:cy="89.707729"
     inkscape:document-units="mm"
     inkscape:current-layer="layer1"
     inkscape:document-rotation="0"
     showgrid="false"
     units="px"
     inkscape:window-width="1366"
     inkscape:window-height="671"
     inkscape:window-x="0"
     inkscape:window-y="0"
     inkscape:window-maximized="1" />
  <metadata
     id="metadata15287">
    <rdf:RDF>
      <cc:Work
         rdf:about="">
        <dc:format>image/svg+xml</dc:format>
        <dc:type
           rdf:resource="http://purl.org/dc/dcmitype/StillImage" />
        <dc:title></dc:title>
      </cc:Work>
    </rdf:RDF>
  </metadata>
  <g
     inkscape:label="レイヤー 1"
     inkscape:groupmode="layer"
     id="layer1">
    <g
       id="g15874"
       transform="matrix(1.6864892,0,0,1.6864892,-4.6737049,3.4471995)">
      <g
         style="fill:none"
         id="g15864"
         transform="matrix(0.58092242,0,0,0.58092242,2.1093219,6.2663417)">
        <path
           fill-rule="evenodd"
           clip-rule="evenodd"
           d="m 12.5858,4.58579 c 0.781,-0.78105 2.0473,-0.78105 2.8284,0 0.781,0.78104 0.781,2.04737 0,2.82842 l -3,2.99999 c -0.7811,0.7811 -2.0474,0.7811 -2.82843,0 -0.39053,-0.3905 -1.02369,-0.3905 -1.41421,0 -0.39053,0.3905 -0.39053,1.0237 0,1.4142 1.56209,1.5621 4.09474,1.5621 5.65684,0 l 3,-2.99997 c 1.5621,-1.5621 1.5621,-4.09476 0,-5.65686 -1.5621,-1.56209 -4.0947,-1.56209 -5.6568,0 l -1.50004,1.5 c -0.39053,0.39053 -0.39053,1.02369 0,1.41422 0.39054,0.39052 1.02364,0.39052 1.41424,0 z m -5.00001,5 c 0.78104,-0.78105 2.04737,-0.78105 2.82841,0 0.3905,0.39052 1.0237,0.39052 1.4142,0 0.3906,-0.39053 0.3906,-1.02369 0,-1.41422 -1.5621,-1.56209 -4.09473,-1.56209 -5.65683,0 l -3,3.00003 c -1.56209,1.5621 -1.56209,4.0947 0,5.6568 1.5621,1.5621 4.09476,1.5621 5.65686,0 l 1.49997,-1.5 c 0.3906,-0.3905 0.3906,-1.0237 0,-1.4142 -0.3905,-0.3905 -1.02366,-0.3905 -1.41419,0 l -1.5,1.5 c -0.78105,0.7811 -2.04737,0.7811 -2.82842,0 -0.78105,-0.781 -0.78105,-2.0474 0,-2.8284 z"
           fill="#4a5568"
           id="path15853" />
      </g>
      <text
         xml:space="preserve"
         style="font-style:normal;font-weight:normal;font-size:10.5833px;line-height:1.25;font-family:sans-serif;fill:#000000;fill-opacity:1;stroke:none;stroke-width:0.264583"
         x="14.363895"
         y="15.938457"
         id="text15868"><tspan
           sodipodi:role="line"
           id="tspan15866"
           x="14.363895"
           y="15.938457"
           style="font-style:normal;font-variant:normal;font-weight:normal;font-stretch:normal;font-family:'Quicksand Medium';-inkscape-font-specification:'Quicksand Medium, ';stroke-width:0.264583">Related</tspan></text>
    </g>
  </g>
</svg>
